<svg width="894" height="1024" viewBox="0 0 894 1024" fill="none" xmlns="http://www.w3.org/2000/svg">
<g clip-path="url(#clip0_454_2)">
<path fill-rule="evenodd" clip-rule="evenodd" d="M329.239 354.21C362.519 354.21 389.856 380.954 389.856 414.83C389.856 448.706 362.519 474.855 329.239 474.855C295.958 474.855 268.621 448.111 268.621 414.235C268.621 381.548 295.958 354.21 329.239 354.21ZM645.402 747.645C663.825 730.41 676.305 707.826 681.06 682.865C684.625 666.818 682.842 650.177 676.9 634.725H597.264C602.613 657.903 600.83 688.808 573.493 699.505C508.121 725.655 407.091 688.213 328.644 604.415C237.123 506.354 212.163 380.954 272.187 325.089C339.342 262.091 475.435 312.014 524.761 347.672C455.229 292.401 323.89 254.96 250.792 323.306C188.391 381.548 202.654 501.005 278.724 608.576V738.136C278.724 755.965 292.987 770.229 310.816 770.229H380.942V713.174C478.406 785.086 587.161 802.321 645.402 747.645ZM413.034 642.451V375.605H483.16C500.989 375.605 515.252 389.869 515.252 407.698V496.251H599.047C621.63 496.251 633.516 504.571 642.431 524.778L665.608 577.077H515.252V681.082C479 677.516 443.937 665.63 413.034 646.612V642.451ZM278.13 496.251H380.348V624.622C345.879 598.472 316.164 567.568 291.798 531.909C281.101 516.457 278.13 512.891 278.13 496.251Z" fill="white"/>
<path fill-rule="evenodd" clip-rule="evenodd" d="M573.492 424.933C503.365 334.004 369.055 291.808 272.186 347.079C366.084 260.309 525.948 336.381 577.057 396.406C586.566 405.915 595.48 417.207 602.612 428.499L615.686 398.189H639.458L615.686 454.055H591.915V453.46C586.566 443.951 580.623 433.848 573.492 424.933Z" fill="white"/>
<path fill-rule="evenodd" clip-rule="evenodd" d="M829.632 580.049C829.632 789.247 659.664 958.626 451.068 958.626H442.748C233.557 958.626 64.1835 789.247 64.1835 580.049V143.824H830.226V580.049H829.632ZM843.3 51.7052H767.825L717.905 65.3743V83.2037H554.475V64.1857L504.554 44.5734H463.548L455.228 39.8189C455.822 39.2246 455.822 38.036 455.822 36.8474C455.822 33.2815 453.445 30.3099 450.473 29.1213V0H443.936V29.7156C440.965 30.9042 438.588 33.8758 438.588 37.4417C438.588 38.6303 438.588 39.2246 439.182 39.8189L430.862 44.5734H388.073L340.529 64.78V83.2037H175.316V65.3743L125.396 51.7052H49.9205L0 65.3743V580.049C0 824.311 198.494 1022.22 442.748 1022.81H451.068C695.322 1022.81 893.221 824.311 893.815 580.049V92.7127V65.3743L843.3 51.7052Z" fill="white"/>
</g>
<defs>
<clipPath id="clip0_454_2">
<rect width="893.221" height="1024" fill="white"/>
</clipPath>
</defs>
</svg>
